P2
# Created by GIMP version 2.10.12 PNM plug-in
25 25
255
198
136
167
181
134
141
206
218
131
158
165
118
189
220
205
117
158
108
174
137
137
127
160
137
110
192
191
128
182
147
88
125
172
188
104
194
94
75
135
217
216
176
159
88
164
139
100
68
87
87
162
204
97
140
209
147
62
118
179
77
155
174
52
63
133
221
218
210
128
88
126
111
93
125
157
186
208
140
89
144
194
123
150
177
134
66
175
96
44
151
167
176
181
195
95
93
97
135
107
177
199
194
200
52
124
201
109
151
192
186
87
85
140
171
109
127
162
155
141
189
156
164
67
70
79
138
117
185
83
69
161
165
86
103
207
180
151
99
149
124
155
168
179
172
223
200
171
107
123
150
74
126
153
93
64
77
168
192
74
194
145
184
149
113
161
182
199
157
191
168
201
207
204
149
102
45
87
137
165
139
72
90
189
170
157
177
65
83
108
135
190
202
138
156
199
191
116
191
190
143
65
87
147
175
197
105
58
95
162
140
206
167
67
153
128
120
190
185
97
153
217
174
102
180
145
94
160
158
181
209
210
184
109
109
129
187
196
145
150
164
134
87
168
197
136
177
201
161
100
149
100
72
161
209
205
195
198
194
161
99
195
204
199
144
120
128
95
84
176
179
161
187
185
192
129
164
148
73
167
223
215
186
124
177
186
138
211
178
202
196
154
103
96
139
210
185
209
186
146
127
178
187
174
74
127
194
216
184
149
154
86
154
143
133
215
211
199
154
108
205
196
169
195
200
201
165
124
190
191
100
99
140
196
182
179
120
94
170
54
145
180
186
205
174
150
190
128
177
187
197
137
96
80
141
188
166
85
93
94
131
170
97
135
126
74
124
159
218
202
165
94
117
158
187
150
102
128
111
79
92
147
143
127
73
80
113
167
79
127
109
100
114
157
228
199
164
121
187
196
186
73
170
172
150
131
83
82
78
84
130
150
109
97
73
126
109
83
111
167
217
170
167
158
151
182
60
94
184
182
176
186
89
141
136
117
153
149
149
95
87
172
130
73
97
196
197
197
205
175
143
69
52
82
190
186
118
118
114
179
208
192
144
115
157
136
113
60
139
108
169
221
174
188
200
161
88
48
62
138
201
192
100
98
99
172
159
185
175
148
98
124
149
118
174
123
184
212
218
215
194
78
55
75
75
180
215
168
127
128
105
153
159
174
187
145
73
147
211
197
179
114
176
221
188
180
49
85
134
110
149
197
205
123
85
114
131
165
147
185
187
143
88
140
159
207
213
189
196
213
184
139
59
128
199
208
207
200
196
138
96
127
146
134
191
202
172
86
77
84
127
192
222
221
232
209
170
168
86
116
191
205
212
204
180
145
99
79
123
123
182
206
143
100
74
144
177
178
166
204
213
165
185
172
89
119
153
188
209
226
174
104
107
59
76
92
96
116
111
121
79
156
208
188
139
137
